<?xml version="1.0" standalone="no"?>
<!DOCTYPE svg PUBLIC "-//W3C//DTD SVG 20010904//EN"
 "http://www.w3.org/TR/2001/REC-SVG-20010904/DTD/svg10.dtd">
<svg version="1.0" xmlns="http://www.w3.org/2000/svg"
 width="396.000000pt" height="396.000000pt" viewBox="0 0 396.000000 396.000000"
 preserveAspectRatio="xMidYMid meet">
<metadata>
Created by potrace 1.11, written by Peter Selinger 2001-2013
</metadata>
<g transform="translate(0.000000,396.000000) scale(0.100000,-0.100000)"
fill="#000000" stroke="none">
<path d="M1829 3897 c-2 -3 -39 -7 -82 -10 -42 -4 -129 -18 -193 -33 -786
-176 -1371 -803 -1490 -1598 -24 -153 -24 -448 0 -561 2 -11 7 -40 11 -65 4
-25 16 -81 27 -125 135 -543 511 -1006 1018 -1254 164 -80 292 -124 471 -160
343 -71 735 -38 1060 88 74 29 225 99 264 124 11 6 50 31 86 53 99 62 204 145
295 234 82 78 204 220 238 273 10 16 20 26 23 23 3 -3 5 -159 6 -348 l0 -343
35 -30 c55 -47 133 -105 141 -105 4 0 16 8 27 18 10 10 47 39 82 65 l62 48 0
1853 0 1854 -173 0 -174 0 0 -414 c0 -228 -3 -417 -6 -420 -3 -3 -11 5 -18 18
-62 116 -321 372 -489 483 -25 17 -47 33 -50 36 -13 17 -284 150 -360 177 -93
33 -209 68 -253 76 -15 3 -54 10 -87 16 -33 5 -72 13 -87 16 -34 7 -377 16
-384 11z m2000 -759 c-1 -623 -3 -684 -23 -598 -4 13 -26 76 -59 165 -6 16
-32 74 -59 128 l-48 98 0 439 0 440 95 0 95 0 -1 -672z m-1644 417 c17 -3 55
-10 85 -16 152 -30 345 -100 477 -175 183 -102 392 -291 516 -464 101 -143
223 -406 251 -542 5 -23 20 -103 32 -168 12 -68 11 -340 -3 -432 -31 -212
-112 -440 -215 -608 -83 -135 -223 -296 -346 -398 -211 -175 -494 -305 -752
-347 -151 -24 -400 -24 -520 0 -14 2 -49 10 -77 16 -29 5 -55 10 -58 10 -3 0
-58 18 -122 40 -362 125 -653 361 -857 696 -31 51 -56 95 -56 99 0 4 -13 34
-29 68 -122 259 -165 594 -115 906 20 125 97 360 146 450 11 19 30 53 41 75
140 259 435 532 707 652 30 14 69 31 85 38 92 40 286 90 411 104 73 9 348 6
399 -4z m1645 -2693 l0 -619 -92 1 -93 1 -1 392 -1 393 51 103 c29 57 70 159
91 225 22 67 41 121 43 122 1 0 2 -278 2 -618z"/>
</g>
</svg>
